<?xml version="1.0" standalone="no"?><!DOCTYPE svg PUBLIC "-//W3C//DTD SVG 1.1//EN" "http://www.w3.org/Graphics/SVG/1.1/DTD/svg11.dtd"><svg t="1520414336396" class="icon" style="" viewBox="0 0 1024 1024" version="1.1" xmlns="http://www.w3.org/2000/svg" p-id="2038" xmlns:xlink="http://www.w3.org/1999/xlink" width="200" height="200"><defs><style type="text/css"></style></defs><path d="M522.188548 298.870902c17.672498 0 31.970132-14.32424 31.970132-31.979342L554.15868 160.322405c0-17.651009-14.298658-31.958876-31.970132-31.958876-17.646915 0-31.969109 14.307867-31.969109 31.958876l0 106.568131C490.219439 284.546661 504.541633 298.870902 522.188548 298.870902L522.188548 298.870902zM362.362446 277.55748l42.626843 0c23.541159 0 42.6074-19.10001 42.6074-42.637076 0-23.551392-19.066241-42.617633-42.6074-42.617633l-42.626843 0c-23.540136 0-42.646286 19.067264-42.646286 42.617633C319.71616 258.45747 338.82231 277.55748 362.362446 277.55748L362.362446 277.55748zM447.596689 405.432892c-11.762905 0-21.313422 9.535167-21.313422 21.313422 0 11.768021 9.550517 21.303188 21.313422 21.303188l85.248569 0c11.778254 0 21.313422 9.5454 21.313422 21.323655l0 42.61661c0 11.778254-9.535167 21.313422-21.313422 21.313422l-85.248569 0c-11.762905 0-21.313422 9.541307-21.313422 21.323655 0 11.768021 9.550517 21.299095 21.313422 21.299095l85.248569 0c11.778254 0 21.313422 9.5454 21.313422 21.313422l0 42.635029c0 11.774161-9.535167 21.303188-21.313422 21.303188l-85.248569 0c-11.762905 0-21.313422 9.5454-21.313422 21.323655 0 11.774161 9.550517 21.313422 21.313422 21.313422l85.248569 0c35.319413 0 63.959707-28.634154 63.959707-63.940265l0-42.635029c0-16.374946-6.166443-31.31317-16.302291-42.626843 10.134825-11.310603 16.302291-26.246781 16.302291-42.62275L596.804966 469.373157c0-35.30918-28.635177-63.940265-63.959707-63.940265L447.596689 405.432892 447.596689 405.432892zM687.260118 201.570855c-7.277754-5.796006-16.496719-9.268084-26.535353-9.268084-23.520693 0-42.62582 19.067264-42.62582 42.617633 0 23.536043 19.105127 42.637076 42.62582 42.637076l-21.312398 0c35.319413 0 63.939241 28.615735 63.939241 63.934125l0 426.264337c0 35.310204-28.620851 63.940265-63.939241 63.940265L127.901507 831.696206c-35.299971 0-63.941288-28.631084-63.941288-63.940265L63.960219 341.491605c0-35.31839 28.64234-63.934125 63.941288-63.934125l-21.313422 0c23.560602 0 42.62582-19.10001 42.62582-42.637076 0-23.551392-19.065218-42.617633-42.62582-42.617633-10.024308 0-19.241226 3.472078-26.524097 9.268084-46.912449 18.944468-80.043011 64.905242-80.043011 118.597095l0 447.587991c0 70.628594 57.280588 127.881552 127.880529 127.881552l511.511883 0c70.637804 0 127.898949-57.252958 127.898949-127.881552L767.312338 320.16795C767.312338 266.476097 734.19201 220.510206 687.260118 201.570855L687.260118 201.570855zM245.120208 298.870902c17.671475 0 31.970132-14.32424 31.970132-31.979342L277.090341 160.322405c0-17.651009-14.298658-31.958876-31.970132-31.958876-17.647939 0-31.971156 14.307867-31.971156 31.958876l0 106.568131C213.149053 284.546661 227.47227 298.870902 245.120208 298.870902L245.120208 298.870902zM213.149053 703.814654l127.880529 0c11.778254 0 21.332864-9.53926 21.332864-21.307282 0-11.784394-9.55461-21.329794-21.332864-21.329794L213.149053 661.177578l0-63.938218c0-11.768021 9.555633-21.313422 21.313422-21.313422l85.254709 0 2.248204-4.495384c23.668049-9.379625 40.399105-32.448016 40.399105-59.440787L362.364493 469.373157c0-35.30918-28.621874-63.940265-63.959707-63.940265L191.855074 405.432892c-11.778254 0-21.332864 9.535167-21.332864 21.313422 0 11.772115 9.55461 21.303188 21.332864 21.303188l106.547665 0c11.777231 0 21.313422 9.5454 21.313422 21.323655l0 42.61661c0 11.778254-9.53619 21.313422-21.313422 21.313422l-85.254709 0 0 3.651157c-24.822338 8.786107-42.621726 32.454156-42.621726 60.285015l0 63.938218C170.52221 684.71976 189.632453 703.814654 213.149053 703.814654L213.149053 703.814654zM213.149053 703.814654" p-id="2039"></path></svg>